<svg xmlns="http://www.w3.org/2000/svg" width="1920" height="1080" viewBox="0 0 1920 1080" role="img" aria-label="Wedding Shedding">
<defs>
<linearGradient id="bg" x1="0" y1="0" x2="1" y2="1"><stop offset="0" stop-color="#FFFFFF"/><stop offset="0.45" stop-color="#FFF8EE"/><stop offset="1" stop-color="#F7D6D9"/></linearGradient>
<radialGradient id="glow" cx="50%" cy="38%" r="55%"><stop offset="0" stop-color="#fff" stop-opacity=".92"/><stop offset=".45" stop-color="#D4AF37" stop-opacity=".28"/><stop offset="1" stop-color="#6B1022" stop-opacity=".10"/></radialGradient>
<linearGradient id="gold" x1="0" y1="0" x2="1" y2="0"><stop offset="0" stop-color="#B98A20"/><stop offset=".5" stop-color="#F6E08A"/><stop offset="1" stop-color="#D4AF37"/></linearGradient>
<filter id="shadow" x="-20%" y="-20%" width="140%" height="140%"><feDropShadow dx="0" dy="18" stdDeviation="20" flood-color="#6B1022" flood-opacity=".18"/></filter>
</defs>
<rect width="100%" height="100%" fill="url(#bg)"/>
<circle cx="960.0" cy="453.59999999999997" r="410.4" fill="url(#glow)"/>
<g opacity=".65"><circle cx="173" cy="97" r="7" fill="#D4AF37" opacity=".3"/><circle cx="346" cy="194" r="8" fill="#D4AF37" opacity=".4"/><circle cx="519" cy="291" r="9" fill="#D4AF37" opacity=".5"/><circle cx="692" cy="388" r="10" fill="#D4AF37" opacity=".2"/><circle cx="865" cy="485" r="11" fill="#D4AF37" opacity=".3"/><circle cx="1038" cy="582" r="12" fill="#D4AF37" opacity=".4"/><circle cx="1211" cy="679" r="13" fill="#D4AF37" opacity=".5"/><circle cx="1384" cy="776" r="14" fill="#D4AF37" opacity=".2"/><circle cx="1557" cy="873" r="6" fill="#D4AF37" opacity=".3"/><circle cx="1730" cy="970" r="7" fill="#D4AF37" opacity=".4"/><circle cx="1903" cy="1067" r="8" fill="#D4AF37" opacity=".5"/><circle cx="156" cy="84" r="9" fill="#D4AF37" opacity=".2"/><circle cx="329" cy="181" r="10" fill="#D4AF37" opacity=".3"/><circle cx="502" cy="278" r="11" fill="#D4AF37" opacity=".4"/><circle cx="675" cy="375" r="12" fill="#D4AF37" opacity=".5"/><circle cx="848" cy="472" r="13" fill="#D4AF37" opacity=".2"/><circle cx="1021" cy="569" r="14" fill="#D4AF37" opacity=".3"/><circle cx="1194" cy="666" r="6" fill="#D4AF37" opacity=".4"/><circle cx="1367" cy="763" r="7" fill="#D4AF37" opacity=".5"/><circle cx="1540" cy="860" r="8" fill="#D4AF37" opacity=".2"/><circle cx="1713" cy="957" r="9" fill="#D4AF37" opacity=".3"/><circle cx="1886" cy="1054" r="10" fill="#D4AF37" opacity=".4"/><circle cx="139" cy="71" r="11" fill="#D4AF37" opacity=".5"/><circle cx="312" cy="168" r="12" fill="#D4AF37" opacity=".2"/><circle cx="485" cy="265" r="13" fill="#D4AF37" opacity=".3"/><circle cx="658" cy="362" r="14" fill="#D4AF37" opacity=".4"/><circle cx="831" cy="459" r="6" fill="#D4AF37" opacity=".5"/><circle cx="1004" cy="556" r="7" fill="#D4AF37" opacity=".2"/><circle cx="1177" cy="653" r="8" fill="#D4AF37" opacity=".3"/><circle cx="1350" cy="750" r="9" fill="#D4AF37" opacity=".4"/><circle cx="1523" cy="847" r="10" fill="#D4AF37" opacity=".5"/><circle cx="1696" cy="944" r="11" fill="#D4AF37" opacity=".2"/><circle cx="1869" cy="1041" r="12" fill="#D4AF37" opacity=".3"/><circle cx="122" cy="58" r="13" fill="#D4AF37" opacity=".4"/></g>
<g filter="url(#shadow)">
<rect x="307.2" y="172.8" width="1305.6000000000001" height="669.6" rx="42" fill="#ffffff" opacity=".55" stroke="#ffffff" stroke-width="4"/>
<rect x="355.2" y="205.2" width="1209.6" height="604.8000000000001" rx="34" fill="none" stroke="url(#gold)" stroke-width="5" opacity=".8"/>
<path d="M 729.6 464.4 C 787.1999999999999 334.8, 1132.8 334.8, 1190.4 464.4 C 1075.2 421.2, 844.8 421.2, 729.6 464.4 Z" fill="url(#gold)" opacity=".9"/>
<circle cx="883.2" cy="464.4" r="52" fill="none" stroke="#6B1022" stroke-width="10" opacity=".9"/>
<circle cx="1036.8000000000002" cy="464.4" r="52" fill="none" stroke="#D4AF37" stroke-width="10" opacity=".9"/>
<text x="50%" y="626.4" text-anchor="middle" font-family="Georgia, serif" font-size="58" font-weight="700" fill="#6B1022">Wedding Shedding</text>
<text x="50%" y="712.8000000000001" text-anchor="middle" font-family="Arial, sans-serif" font-size="24" letter-spacing="4" fill="#8E5B1D">CINEMATIC WEDDING STORIES</text>
</g>
</svg>