<svg xmlns="http://www.w3.org/2000/svg" width="1200" height="800" viewBox="0 0 1200 800" role="img" aria-label="Candid Photography">
<defs>
<linearGradient id="bg" x1="0" y1="0" x2="1" y2="1"><stop offset="0" stop-color="#FFFFFF"/><stop offset="0.45" stop-color="#FFF8EE"/><stop offset="1" stop-color="#F7D6D9"/></linearGradient>
<radialGradient id="glow" cx="50%" cy="38%" r="55%"><stop offset="0" stop-color="#fff" stop-opacity=".92"/><stop offset=".45" stop-color="#D4AF37" stop-opacity=".28"/><stop offset="1" stop-color="#6B1022" stop-opacity=".10"/></radialGradient>
<linearGradient id="gold" x1="0" y1="0" x2="1" y2="0"><stop offset="0" stop-color="#B98A20"/><stop offset=".5" stop-color="#F6E08A"/><stop offset="1" stop-color="#D4AF37"/></linearGradient>
<filter id="shadow" x="-20%" y="-20%" width="140%" height="140%"><feDropShadow dx="0" dy="18" stdDeviation="20" flood-color="#6B1022" flood-opacity=".18"/></filter>
</defs>
<rect width="100%" height="100%" fill="url(#bg)"/>
<circle cx="600.0" cy="336.0" r="304.0" fill="url(#glow)"/>
<g opacity=".65"><circle cx="173" cy="97" r="7" fill="#D4AF37" opacity=".3"/><circle cx="346" cy="194" r="8" fill="#D4AF37" opacity=".4"/><circle cx="519" cy="291" r="9" fill="#D4AF37" opacity=".5"/><circle cx="692" cy="388" r="10" fill="#D4AF37" opacity=".2"/><circle cx="865" cy="485" r="11" fill="#D4AF37" opacity=".3"/><circle cx="1038" cy="582" r="12" fill="#D4AF37" opacity=".4"/><circle cx="11" cy="679" r="13" fill="#D4AF37" opacity=".5"/><circle cx="184" cy="776" r="14" fill="#D4AF37" opacity=".2"/><circle cx="357" cy="73" r="6" fill="#D4AF37" opacity=".3"/><circle cx="530" cy="170" r="7" fill="#D4AF37" opacity=".4"/><circle cx="703" cy="267" r="8" fill="#D4AF37" opacity=".5"/><circle cx="876" cy="364" r="9" fill="#D4AF37" opacity=".2"/><circle cx="1049" cy="461" r="10" fill="#D4AF37" opacity=".3"/><circle cx="22" cy="558" r="11" fill="#D4AF37" opacity=".4"/><circle cx="195" cy="655" r="12" fill="#D4AF37" opacity=".5"/><circle cx="368" cy="752" r="13" fill="#D4AF37" opacity=".2"/><circle cx="541" cy="49" r="14" fill="#D4AF37" opacity=".3"/><circle cx="714" cy="146" r="6" fill="#D4AF37" opacity=".4"/><circle cx="887" cy="243" r="7" fill="#D4AF37" opacity=".5"/><circle cx="1060" cy="340" r="8" fill="#D4AF37" opacity=".2"/><circle cx="33" cy="437" r="9" fill="#D4AF37" opacity=".3"/><circle cx="206" cy="534" r="10" fill="#D4AF37" opacity=".4"/><circle cx="379" cy="631" r="11" fill="#D4AF37" opacity=".5"/><circle cx="552" cy="728" r="12" fill="#D4AF37" opacity=".2"/><circle cx="725" cy="25" r="13" fill="#D4AF37" opacity=".3"/><circle cx="898" cy="122" r="14" fill="#D4AF37" opacity=".4"/><circle cx="1071" cy="219" r="6" fill="#D4AF37" opacity=".5"/><circle cx="44" cy="316" r="7" fill="#D4AF37" opacity=".2"/><circle cx="217" cy="413" r="8" fill="#D4AF37" opacity=".3"/><circle cx="390" cy="510" r="9" fill="#D4AF37" opacity=".4"/><circle cx="563" cy="607" r="10" fill="#D4AF37" opacity=".5"/><circle cx="736" cy="704" r="11" fill="#D4AF37" opacity=".2"/><circle cx="909" cy="1" r="12" fill="#D4AF37" opacity=".3"/><circle cx="1082" cy="98" r="13" fill="#D4AF37" opacity=".4"/></g>
<g filter="url(#shadow)">
<rect x="192.0" y="128.0" width="816.0000000000001" height="496.0" rx="42" fill="#ffffff" opacity=".55" stroke="#ffffff" stroke-width="4"/>
<rect x="222.0" y="152.0" width="756.0" height="448.00000000000006" rx="34" fill="none" stroke="url(#gold)" stroke-width="5" opacity=".8"/>
<path d="M 456.0 344.0 C 491.99999999999994 248.0, 708.0 248.0, 744.0 344.0 C 672.0000000000001 312.0, 528.0 312.0, 456.0 344.0 Z" fill="url(#gold)" opacity=".9"/>
<circle cx="552.0" cy="344.0" r="52" fill="none" stroke="#6B1022" stroke-width="10" opacity=".9"/>
<circle cx="648.0" cy="344.0" r="52" fill="none" stroke="#D4AF37" stroke-width="10" opacity=".9"/>
<text x="50%" y="463.99999999999994" text-anchor="middle" font-family="Georgia, serif" font-size="58" font-weight="700" fill="#6B1022">Candid Photography</text>
<text x="50%" y="528.0" text-anchor="middle" font-family="Arial, sans-serif" font-size="24" letter-spacing="4" fill="#8E5B1D">REAL EMOTIONS</text>
</g>
</svg>